<?xml version="1.0" standalone="no"?>
<!DOCTYPE svg PUBLIC "-//W3C//DTD SVG 20010904//EN"
 "http://www.w3.org/TR/2001/REC-SVG-20010904/DTD/svg10.dtd">
<svg version="1.0" xmlns="http://www.w3.org/2000/svg"
 width="1049.000000pt" height="831.000000pt" viewBox="0 0 1049.000000 831.000000"
 preserveAspectRatio="xMidYMid meet">

<g transform="translate(0.000000,831.000000) scale(0.100000,-0.100000)"
fill="#000000" stroke="none">
<path d="M5305 8104 c-61 -10 -136 -35 -183 -63 -36 -21 -3651 -2835 -3840
-2989 -101 -82 -161 -204 -169 -343 -11 -175 55 -323 189 -430 l50 -39 4012 0
4013 0 39 29 c126 93 198 221 210 376 11 128 -33 255 -121 353 -26 29 -267
224 -536 433 l-488 382 -3 851 -3 851 -27 57 c-37 79 -99 142 -177 181 l-66
32 -316 3 c-301 3 -319 2 -380 -18 -111 -38 -178 -100 -231 -215 -22 -49 -23
-59 -26 -412 -2 -200 -5 -363 -7 -363 -2 0 -356 275 -787 612 -431 336 -803
624 -827 639 -83 53 -233 87 -326 73z"/>
<path d="M2771 2578 l0 -1173 30 -23 29 -24 0 1161 0 1161 2540 0 2540 0 0
-1105 0 -1105 30 0 30 0 0 1140 0 1140 -2600 0 -2600 0 1 -1172z"/>
<path d="M3460 788 c0 -7 3 -23 6 -35 l6 -23 1793 0 1793 0 10 29 c6 16 8 32
5 35 -4 3 -818 6 -1810 6 -1436 0 -1803 -3 -1803 -12z"/>
</g>
</svg>
